<svg width="543" height="569" viewBox="0 0 543 569" fill="none" xmlns="http://www.w3.org/2000/svg">
<path d="M428.322 84.3025C425.252 65.8845 418.769 50.1213 403.756 37.3448C401.027 35.0219 394.885 39.8338 397.444 42.3227C413.992 57.754 418.769 74.015 419.281 98.5724C419.451 107.698 419.11 118.318 418.086 129.933C417.233 138.893 426.616 138.395 427.64 132.919C429.346 121.802 430.199 95.0878 428.322 84.3025Z" fill="#EB8382"/>
<path d="M410.239 51.1172C408.874 48.9602 407.339 46.969 405.633 44.9779C403.245 42.489 400.174 40.3319 400.515 36.8474C397.956 37.6771 395.738 40.4978 397.615 42.1571C414.163 57.5884 418.94 73.8494 419.451 98.4068C419.622 107.533 419.281 118.152 418.257 129.767C418.087 132.588 418.769 134.413 419.963 135.575C424.228 126.449 423.887 114.502 424.058 105.21C424.228 92.2674 422.863 79.1591 418.428 66.8804C416.21 61.4048 413.48 56.0951 410.239 51.1172Z" fill="#C37A87"/>
<path d="M385.161 43.3184C365.713 20.2544 330.911 7.47794 285.361 24.2367C264.719 31.8694 249.877 43.6503 241.006 59.5794C229.064 80.9841 228.552 119.479 235.376 145.198C236.059 148.517 236.912 151.67 237.935 154.822C243.906 176.061 255.166 195.309 273.761 209.081C291.162 221.691 313.339 226.835 335.005 223.019C356.671 219.036 375.266 205.43 386.697 188.174C414.163 146.36 418.598 82.9753 385.161 43.3184Z" fill="#521E3F"/>
<path d="M537.983 444.321C536.448 435.692 534.401 427.23 531.842 418.768C528.6 408.314 521.265 400.682 517.341 390.56C514.952 384.587 516.317 376.124 514.099 370.151C511.711 364.177 505.228 361.522 502.84 355.549C500.452 349.576 501.987 340.45 499.428 334.642C494.822 324.686 489.704 314.731 483.904 305.439C474.18 289.842 461.043 273.581 444.666 263.791C443.131 262.795 441.595 261.966 440.06 261.136C429.483 254.333 415.323 249.853 400.652 243.879C388.028 238.736 338.384 227.95 293.005 227.95C251.038 228.116 212.653 238.736 208.9 239.731C180.922 247.198 172.392 247.862 146.973 269.764C136.908 278.393 127.013 287.187 116.606 295.317C111.318 299.465 102.276 299.465 96.8171 303.116C89.652 308.094 85.8989 316.722 78.0514 320.87C55.5325 332.651 30.1134 333.481 15.6126 355.383C9.30045 364.841 3.50012 384.918 3.50012 396.201C3.50012 405.328 8.27687 413.624 15.2714 419.431C29.0898 430.88 50.2439 431.876 67.4743 431.212C92.5522 430.051 117.289 422.584 140.661 414.122C163.009 405.991 171.539 413.458 170.515 430.383C169.662 445.15 168.809 459.918 168.298 474.851C167.615 490.946 162.512 516.759 162 532.854C161.488 550.608 238.018 561.644 257.125 564.465C274.339 567.007 258.293 564.564 287.625 566.896C336.781 570.805 395.679 564.706 408.5 551.82C410.718 549.663 416.688 536.909 420.782 507.539C422.659 494.099 427.947 489.453 439.036 499.409C452.343 511.522 469.744 519.486 487.827 520.648C507.617 521.975 525.359 511.853 534.059 494.763C541.736 479.166 540.883 460.748 537.983 444.321Z" fill="#C5C7D2" fill-opacity="0.2"/>
<path d="M496.22 351.779C493.15 358.084 490.591 364.223 486.496 370.031C481.89 376.502 476.602 382.476 470.972 388.283C470.801 388.449 470.972 388.615 471.143 388.615C477.455 384.135 482.743 378.659 487.349 372.52C491.614 366.712 496.05 359.246 496.562 351.945C496.562 351.779 496.22 351.613 496.22 351.779Z" fill="#F5F5F5"/>
<path d="M274.102 282.919C270.861 276.613 266.937 271.801 259.601 270.64C252.266 269.478 244.589 272.133 237.935 274.788C225.482 279.932 212.857 287.565 203.816 298.184C196.992 306.148 257.725 315.606 267.79 315.606C287.067 315.772 279.561 293.87 274.102 282.919Z" fill="#FFA26E"/>
<path d="M277.002 300.341C275.808 296.691 274.784 291.547 269.666 291.049C268.472 290.883 265.231 291.049 263.013 291.713C259.942 292.708 260.795 294.7 261.648 296.525C263.354 300.175 265.401 303.328 270.178 303.826C273.59 304.323 278.026 303.328 277.002 300.341Z" fill="white"/>
<path d="M251.924 306.149C248.001 299.511 247.318 291.547 246.806 284.08C246.806 283.748 246.465 283.748 246.295 284.08C245.953 285.573 245.783 287.399 245.612 289.058C243.565 294.202 236.4 292.708 232.647 296.027C229.235 299.18 227.699 303.494 228.382 307.974C228.552 308.637 228.552 309.301 228.723 309.965C240.153 312.454 252.777 314.445 260.795 315.275C257.383 312.952 254.313 310.131 251.924 306.149Z" fill="#F4905D"/>
<path d="M333.129 231.813C320.846 230.485 308.222 229.987 295.938 230.485C272.055 231.315 261.478 251.558 280.755 268.649C305.151 290.551 347.8 293.206 366.737 265.33C373.39 255.54 374.925 240.441 353.942 234.965C346.265 232.974 337.906 232.31 333.129 231.813Z" fill="#F5F5F5"/>
<path d="M534.946 457.641C529.999 446.856 521.81 437.564 512.427 430.263C496.562 417.818 476.09 411.845 457.324 404.71C446.747 400.728 435.829 396.579 426.275 390.772C421.328 387.785 415.698 383.305 409.727 386.126C404.78 388.449 401.539 394.422 399.15 398.736C396.25 404.046 394.032 409.688 391.985 415.329C386.867 429.765 383.796 436.734 394.885 445.528C402.05 451.17 414.675 460.628 419.963 466.103C429.176 476.059 437.194 487.01 446.747 496.634C460.566 510.738 479.843 520.694 499.974 522.021C519.592 523.183 539.552 511.568 542.623 491.656C544.329 480.207 539.723 467.928 534.946 457.641Z" fill="#FFA26E"/>
<path d="M537.676 504.433C531.193 508.581 523.004 510.738 515.668 511.402C503.385 512.563 490.42 510.738 479.16 505.76C469.778 501.446 461.93 494.311 455.277 486.678C439.07 467.763 427.64 444.201 422.522 420.141C420.134 409.19 418.428 395.584 412.116 385.462C411.263 385.628 410.41 385.794 409.557 386.292C404.609 388.615 401.368 394.588 398.98 398.902C396.079 404.212 393.862 409.854 391.814 415.495C386.696 429.931 383.626 436.9 394.715 445.694C401.88 451.336 414.504 460.794 419.792 466.269C429.005 476.225 437.023 487.176 446.576 496.8C460.395 510.904 479.672 520.86 499.803 522.187C514.815 523.017 529.999 516.379 537.676 504.433Z" fill="#F4905D"/>
<path d="M187.438 315.772C162.702 321.912 129.947 327.221 104.357 329.544C81.3265 331.536 56.7604 331.536 37.1417 344.976C28.4412 350.949 21.1055 359.412 14.4522 367.542C7.96946 375.341 1.99853 384.467 0.292556 394.588C-0.901629 402.055 1.48674 410.849 7.96946 415.495C14.964 420.473 24.0057 422.298 32.3649 423.46C40.2124 424.455 48.2305 424.787 56.2486 424.953C67.5081 425.285 77.9146 423.128 88.4916 419.312C100.263 415.163 180.785 383.637 188.803 376.17C194.945 370.363 198.527 362.398 200.404 354.434C205.692 333.361 199.721 312.786 187.438 315.772Z" fill="#FFA26E"/>
<path d="M188.974 376.004C191.021 374.179 192.727 371.856 194.262 369.699C193.75 368.703 193.239 367.542 192.556 366.546C183.173 349.788 150.077 339.832 118.005 362.232C111.181 367.044 105.381 373.184 98.8981 378.327C90.3682 385.13 80.3029 390.108 70.2377 394.422C54.7133 401.225 32.7061 408.028 16.8405 398.736C8.65184 393.925 6.43408 386.126 6.77528 377.83C3.70452 382.973 1.14555 388.449 0.292556 394.256C-0.901629 401.723 1.48674 410.517 7.96946 415.163C14.964 420.141 24.0057 421.966 32.365 423.128C40.2125 424.124 48.2305 424.455 56.2486 424.621C67.5081 424.953 77.9146 422.796 88.4916 418.98C100.433 414.997 180.956 383.471 188.974 376.004Z" fill="#F4905D"/>
<path d="M399.662 330.54C398.297 325.064 396.591 320.086 391.132 317.432C383.967 313.947 369.125 312.786 366.737 322.409C364.86 330.208 369.978 342.155 376.461 346.801C387.208 354.6 406.145 357.586 403.756 345.308C402.903 340.33 400.856 335.518 399.662 330.54Z" fill="#FFA26E"/>
<path d="M405.633 349.124C402.05 346.303 379.702 334.854 375.778 334.19C368.443 332.863 365.201 335.186 357.866 335.186C355.136 335.186 317.604 322.741 308.733 318.261C305.492 316.602 303.615 312.786 302.421 311.79C295.768 305.983 278.026 302.332 269.155 301.502C266.425 301.337 259.772 303.494 252.607 306.646C232.476 315.606 222.923 324.069 211.663 350.783C208.081 359.08 205.01 367.874 204.328 376.834C203.816 385.296 208.251 390.44 217.975 389.61C226.676 388.947 250.73 369.367 263.525 359.08C268.643 354.931 270.008 356.425 273.59 358.084C274.273 358.416 275.126 358.748 276.149 359.246C278.879 360.573 278.879 361.9 278.026 365.385C277.173 368.372 276.49 371.192 276.661 374.179C277.002 378.327 281.779 380.484 285.191 381.978C291.332 384.632 297.815 386.79 303.957 389.776C309.586 392.431 312.998 388.781 317.434 385.628C318.628 384.798 319.822 383.969 321.016 383.139C323.064 381.646 326.476 381.646 327.67 382.144C330.399 383.305 332.958 384.301 335.517 385.462C340.976 387.785 340.635 394.422 338.076 403.216C327.329 440.716 350.018 428.438 366.054 418.648C378.167 411.181 392.497 401.059 403.415 387.453C407.168 382.31 410.239 352.774 405.633 349.124Z" fill="#3C68CD"/>
<path d="M305.321 323.073C304.81 322.907 299.35 333.029 298.327 338.173C297.986 339.832 338.247 354.931 338.588 354.433C341.147 350.451 343.535 344.312 345.924 338.836C346.094 338.338 319.31 328.715 305.321 323.073Z" fill="#2453B2"/>
<path d="M402.392 388.283C406.145 377.829 405.803 366.546 396.591 358.748C388.914 352.111 377.314 350.783 367.419 351.447C355.307 352.276 345.412 357.918 336.029 364.887C330.74 368.869 325.793 373.349 319.822 376.668C312.316 380.982 305.321 381.148 297.474 378.161C294.062 376.834 290.65 375.175 287.75 372.852C284.508 370.363 285.191 365.883 286.044 362.398C287.409 356.093 289.797 350.285 290.138 343.814C290.821 334.024 284.508 325.894 276.32 320.916C254.483 307.808 230.258 317.266 220.875 332.033C217.634 337.011 214.734 343.15 211.493 350.617C207.91 358.914 204.839 367.708 204.157 376.668C203.645 385.13 208.081 390.274 217.805 389.444C226.505 388.781 250.559 369.201 263.354 358.914C268.472 354.765 269.837 356.259 273.42 357.918C274.102 358.25 274.955 358.582 275.979 359.08C278.708 360.407 278.708 361.734 277.855 365.219C277.002 368.206 276.32 371.026 276.49 374.013C276.832 378.161 281.608 380.318 285.02 381.812C291.162 384.467 297.644 386.624 303.786 389.61C309.416 392.265 312.828 388.615 317.263 385.462C318.457 384.632 319.652 383.803 320.846 382.973C322.893 381.48 326.305 381.48 327.499 381.978C330.229 383.139 332.788 384.135 335.347 385.296C340.806 387.619 340.464 394.256 337.906 403.051C327.158 440.55 349.847 428.272 365.884 418.482C377.655 411.181 391.473 401.225 402.392 388.283Z" fill="#2453B2"/>
<path d="M363.495 244.755C362.813 240.939 361.619 237.454 361.789 233.638C361.789 230.485 362.472 212.399 362.13 201.116C361.96 196.968 361.789 192.156 350.359 190.828C341.318 189.833 300.033 190.828 295.085 190.994C288.773 191.326 286.214 193.815 286.214 199.457C286.044 209.081 286.385 218.87 283.997 228.162C282.291 234.965 279.22 241.768 280.073 248.903C280.926 256.536 287.92 261.016 294.403 264.335C303.957 269.147 314.875 270.972 325.623 271.138C335.005 271.304 345.071 269.644 353.601 265.496C361.96 261.016 365.201 253.549 363.495 244.755Z" fill="#E87F52"/>
<path d="M312.316 254.047C302.933 239.777 310.098 220.695 318.116 207.421C322.381 200.286 328.011 194.645 334.323 189.999C318.799 189.999 298.327 190.497 294.915 190.663C288.603 190.994 286.044 193.483 286.044 199.125C285.873 208.749 286.214 218.538 283.826 227.83C282.12 234.633 279.049 241.437 279.902 248.571C280.755 256.204 287.75 260.684 294.233 264.003C303.786 268.815 314.704 270.64 325.452 270.806C334.835 270.972 344.9 269.312 353.43 265.164C354.454 264.666 355.307 264.169 356.16 263.505C339.953 268.649 321.869 268.649 312.316 254.047Z" fill="#DB6B45"/>
<path d="M383.626 147.521C384.308 140.22 386.185 114.833 387.72 109.524C390.279 101.725 400.003 101.559 407.168 102.057C411.263 102.389 416.039 103.218 420.475 104.712C428.152 107.367 432.417 109.358 432.246 115.829C431.222 137.897 427.981 154.822 424.569 165.11C421.669 173.572 418.086 175.065 412.798 175.563C409.045 175.895 398.809 174.899 392.667 174.07C388.232 173.406 383.626 172.079 382.602 164.28C381.92 158.638 383.114 152.333 383.626 147.521Z" fill="#93426E"/>
<path d="M392.667 173.904C394.715 174.236 397.274 174.568 399.833 174.899C407.509 175.729 412.969 168.594 416.039 160.464C420.304 148.849 421.157 135.74 420.816 123.794C420.645 117.82 420.475 110.851 419.281 104.214C415.186 102.887 410.921 102.223 407.168 101.891C400.003 101.227 390.279 101.559 387.72 109.358C386.014 114.668 384.308 140.055 383.626 147.355C383.114 152.167 382.09 158.473 382.773 164.114C383.626 171.913 388.402 173.24 392.667 173.904Z" fill="#7C315D"/>
<path d="M369.637 34.8561C353.771 29.2145 327.158 27.8871 304.468 32.2012C271.372 38.5065 249.365 63.8935 246.124 103.218C244.418 123.13 246.295 145.198 251.071 165.442C265.231 224.844 321.528 238.45 350.189 229.988C366.225 225.176 377.825 215.386 386.355 201.448C404.439 172.245 415.528 120.807 404.78 78.993C399.662 59.4134 389.085 41.825 369.637 34.8561Z" fill="#FFA26E"/>
<path d="M404.609 78.993C399.491 59.4134 389.085 41.825 369.466 34.8561C353.601 29.2145 326.987 27.8871 304.298 32.2012C271.202 38.5065 249.195 63.8935 245.953 103.218C244.247 123.13 246.124 145.198 250.901 165.441C261.478 209.412 295.086 228.328 323.405 231.647C322.211 231.315 320.846 230.983 319.652 230.651C308.222 227.333 297.474 222.023 288.773 214.058C280.585 206.758 274.102 196.968 273.42 186.017C272.908 175.895 279.561 167.101 287.92 161.791C302.933 152.499 323.064 151.669 340.294 152.001C350.871 152.167 361.619 152.997 372.196 153.495C382.261 153.992 393.691 153.827 403.586 156.315C409.727 131.924 411.092 103.716 404.609 78.993Z" fill="#F4905D"/>
<path d="M387.038 27.8868C364.348 8.30732 334.664 3.99318 305.663 9.80067C279.22 15.1104 253.801 29.3802 240.665 53.1079C233.841 65.5525 229.747 80.1542 229.064 94.2581C228.723 103.384 230.429 116.99 237.424 124.457C240.324 127.61 241.177 125.453 240.835 122.466C238.618 105.873 241.859 88.4506 252.607 75.0104C264.89 59.5791 286.556 59.911 304.639 61.2384C323.575 62.7318 342 66.5481 361.107 65.3866C369.466 64.8888 381.067 63.5614 388.061 57.7539C393.862 62.8977 398.468 68.7052 402.05 76.006C405.633 83.3068 406.657 91.1055 407.51 99.07C407.851 103.55 409.386 104.214 410.58 99.5678C416.722 73.683 407.51 45.6412 387.038 27.8868Z" fill="#521E3F"/>
<path d="M332.788 19.7565C330.57 16.9357 327.84 15.6083 324.77 15.2764C321.869 14.7787 308.221 15.2764 304.468 15.9402C302.592 16.272 300.886 16.6039 299.35 17.2676C297.644 17.9313 298.327 18.595 299.35 19.2587C311.463 27.0573 312.145 48.9599 312.145 62.0682C312.145 63.8934 313.681 64.3912 316.069 64.3912C324.087 64.2252 331.935 63.8934 339.953 63.7275C343.023 63.5615 343.365 63.2297 343.535 61.0726C344.218 46.1391 341.488 31.0396 332.788 19.7565Z" fill="#1B4C9B"/>
<path d="M318.799 48.7939C316.922 42.6546 317.093 35.8515 319.822 30.044C322.552 24.0706 328.181 21.9136 334.323 21.7476C333.811 21.0839 333.299 20.4202 332.788 19.7565C330.57 16.9357 327.84 15.6083 324.77 15.2764C321.869 14.7787 308.221 15.2764 304.468 15.9402C302.592 16.272 300.886 16.6039 299.35 17.2676C297.644 17.9313 298.327 18.595 299.35 19.2587C311.463 27.0573 312.145 48.9599 312.145 62.0682C312.145 63.8934 313.681 64.3912 316.069 64.3912C320.334 64.2252 324.77 64.2253 329.034 64.0593C324.258 59.7452 320.505 54.6014 318.799 48.7939Z" fill="#103E82"/>
<path d="M262.331 150.674C261.648 143.373 259.772 117.986 258.236 112.676C255.677 104.878 245.953 104.712 238.788 105.209C234.694 105.541 229.917 106.371 225.482 107.864C217.805 110.519 213.54 112.51 213.71 118.981C214.734 141.05 217.975 157.975 221.387 168.262C224.287 176.725 227.87 178.218 233.159 178.716C236.912 179.048 247.148 178.052 253.289 177.222C257.725 176.559 262.331 175.231 263.354 167.433C263.866 161.957 262.672 155.652 262.331 150.674Z" fill="#93426E"/>
<path d="M258.066 112.676C255.848 105.873 248.001 104.878 241.347 105.043C248.854 113.672 250.048 127.61 250.73 138.395C252.436 170.585 245.953 175.563 234.012 178.881C238.277 179.047 247.489 178.052 253.119 177.222C257.554 176.559 262.16 175.231 263.184 167.432C263.866 161.791 262.672 155.486 262.331 150.674C261.648 143.539 259.772 117.986 258.066 112.676Z" fill="#7C315D"/>
<path d="M229.576 119.811C225.141 111.681 213.028 109.358 213.711 121.802C214.905 142.543 217.976 158.638 221.387 168.428C225.823 181.205 233.5 171.249 234.865 165.442C237.765 153.827 234.694 129.103 229.576 119.811Z" fill="#D3D0FF"/>
<path d="M229.576 119.811C225.993 113.174 217.464 110.519 214.734 116.161C219.511 112.842 225.311 116.658 227.87 123.13C230.088 128.771 230.941 135.242 232.135 141.216C233.67 149.18 234.353 157.477 231.453 165.275C230.77 167.433 229.576 169.092 228.041 170.751C225.482 173.406 222.923 169.59 221.729 167.93C221.387 167.433 221.046 166.769 220.705 166.105C220.876 166.935 221.217 167.598 221.387 168.262C225.823 181.039 233.5 171.083 234.865 165.275C237.765 153.826 234.694 129.103 229.576 119.811Z" fill="#B1B1F2"/>
<path d="M393.009 50.2873C382.602 48.9598 372.025 48.4621 361.619 48.2961C334.494 47.7984 280.073 50.2873 258.578 57.92C253.118 59.9111 242.371 65.3867 239.3 76.338C235.717 89.2804 236.57 111.349 239.3 126.282C242.883 146.36 255.848 150.674 266.084 152.333C296.791 157.643 368.101 157.477 410.751 152.167C423.034 150.674 433.952 140.552 435.146 128.937C437.705 105.044 436.34 91.1056 435.829 80.984C434.805 57.4222 419.451 53.6058 393.009 50.2873Z" fill="#3C68CD"/>
<path d="M427.469 72.8535C425.422 66.7142 421.328 61.9023 413.822 58.7496C393.691 50.4532 327.84 52.9422 292.527 56.5926C278.026 58.0859 268.302 61.2386 262.842 67.046C255.166 75.3425 256.701 115.995 260.284 125.785C265.401 139.723 279.049 140.22 289.626 140.884C316.41 142.377 391.985 142.875 412.798 136.238C424.74 132.422 428.834 127.776 429.858 107.201C430.37 95.5857 429.687 79.6566 427.469 72.8535Z" fill="#1B4C9B"/>
<path d="M406.486 34.3583C398.468 24.2367 387.55 17.4336 375.949 11.6261C362.472 4.82307 348.824 1.00673 333.811 0.177087C306.004 -1.15034 275.467 5.15493 253.289 22.0796C248.001 26.0619 238.788 33.1968 237.765 40.8295C237.253 44.314 241.859 49.9555 245.271 50.2874C247.148 50.4533 255.848 48.96 258.236 47.6325C260.795 46.1392 263.184 44.314 265.402 42.6547C278.196 33.0309 292.356 25.73 308.051 21.5818C325.793 16.9358 342.512 19.0929 359.06 26.3937C365.542 29.2145 371.684 32.8649 377.655 36.5153C382.09 39.1702 386.185 42.1569 391.132 43.8162C391.814 43.9821 395.226 44.8118 398.638 44.4799C401.709 44.148 404.78 42.9865 405.804 41.8251C407.851 39.5021 407.68 35.8516 406.486 34.3583Z" fill="#EB8382"/>
<path d="M368.101 26.0618C352.577 17.4336 336.029 13.1194 318.116 15.4424C302.08 17.5995 286.215 23.9048 272.567 32.699C266.255 36.6812 258.748 42.4887 250.73 41.1613C247.489 40.6635 244.759 38.1746 241.347 38.1746C240.153 38.1746 238.959 38.3405 238.106 38.6724C237.935 39.3361 237.765 39.9998 237.594 40.6635C237.082 44.148 241.688 49.7896 245.1 50.1214C246.977 50.2873 255.678 48.794 258.066 47.4666C260.625 45.9732 263.013 44.148 265.231 42.4887C278.026 32.8649 292.185 25.564 307.88 21.4158C325.623 16.7698 342.341 18.9269 358.889 26.2278C365.372 29.0485 371.513 32.6989 377.484 36.3494C381.92 39.0042 386.014 41.9909 390.962 43.6502C391.644 43.8161 395.056 44.6458 398.468 44.3139C401.027 44.148 403.415 43.1524 404.78 42.3228C392.156 45.6413 379.19 32.2012 368.101 26.0618Z" fill="#C37A87"/>
<path d="M237.424 42.3228C230.429 48.96 219.511 65.3869 213.54 83.9708C208.934 98.4066 207.91 114.004 209.787 129.601C210.128 132.754 210.981 136.57 212.858 139.391C214.222 141.548 217.634 141.714 220.876 141.216C224.117 140.718 227.188 139.557 227.358 135.74C227.7 131.758 227.017 127.112 226.676 123.794C225.994 116.161 222.07 109.856 222.07 101.891C222.24 74.5129 234.865 59.5794 245.271 47.9644C247.318 46.1392 241.177 38.6724 237.424 42.3228Z" fill="#EB8382"/>
<path d="M295.427 327.055C288.944 320.418 281.096 314.943 273.078 310.297C264.89 305.651 255.677 301.503 245.953 298.848C233.329 295.529 215.928 291.381 201.086 298.682C188.632 304.655 178.738 316.436 171.573 327.719C164.408 338.67 158.948 351.613 159.46 364.887C159.631 368.869 160.484 372.686 162.019 376.17C162.019 376.17 162.019 376.336 162.19 376.336C163.043 378.161 164.066 379.821 165.09 381.314C165.09 381.314 165.09 381.48 165.261 381.48C165.431 381.812 165.602 381.978 165.943 382.31C169.355 386.956 173.62 391.104 178.397 394.09C186.073 398.902 214.052 399.068 227.87 399.4C234.011 399.566 239.129 395.086 241.006 392.099C244.247 392.099 247.318 391.27 250.218 389.61C254.313 387.121 257.042 382.807 257.383 378.493C257.895 378.493 258.236 378.493 258.748 378.327C264.89 377.332 267.96 371.524 269.496 366.049C270.349 363.062 270.861 358.084 268.813 356.425C268.131 355.927 259.089 356.923 253.118 352.94C249.365 350.451 246.295 347.133 243.394 343.98C240.835 341.325 236.912 337.011 235.035 332.863C233.159 328.217 234.694 326.226 238.959 327.553C249.365 330.54 259.431 335.186 268.472 341.325C275.808 346.303 283.655 351.779 293.038 351.945C298.327 352.111 303.957 348.958 304.298 343.316C304.468 336.679 299.692 331.701 295.427 327.055Z" fill="#FFA26E"/>
<path d="M426.616 373.681C426.105 369.035 422.693 364.887 420.134 361.071C416.892 356.591 414.163 352.111 410.239 348.128C402.903 340.827 391.473 340.827 381.749 340.496C371.855 340.164 361.789 339.998 351.895 341.491C344.047 342.653 338.417 345.639 338.076 353.936C337.906 359.743 343.365 362.564 348.312 363.891C360.254 367.044 373.731 364.389 385.332 367.542C390.45 368.869 390.791 370.695 389.597 374.843C389.256 375.838 388.914 376.834 388.573 377.829C386.697 382.144 382.432 383.637 379.361 384.964C375.608 386.458 371.343 388.283 368.272 389.113C363.836 390.44 359.572 390.938 355.307 388.781C352.236 387.287 349.677 384.632 346.435 383.637C339.27 381.148 331.764 380.982 324.599 383.637C321.699 384.632 319.14 386.624 319.481 389.444C317.263 391.27 316.751 393.924 317.946 397.575C320.334 405.871 323.917 415.827 329.546 422.63C329.717 422.796 329.887 423.128 330.229 423.294C330.911 426.944 333.982 430.263 337.735 433.084C342.512 436.568 347.8 439.555 352.918 442.707C358.036 445.86 363.836 449.842 369.807 450.838C376.973 451.999 386.867 451.833 393.52 448.847C397.103 447.187 400.344 441.878 401.709 438.559C402.05 437.729 402.392 436.734 402.562 435.904C405.462 434.411 408.192 432.42 410.41 430.263C413.992 426.778 414.845 421.966 414.504 417.154C418.257 413.836 421.669 410.019 423.887 406.037C427.128 400.23 426.105 392.431 423.034 386.458C425.422 382.31 427.128 377.995 426.616 373.681Z" fill="#FFA26E"/>
<path d="M358.036 174.402C347.118 177.72 333.811 179.047 316.24 175.895C306.174 174.07 301.056 180.707 303.274 189.003C305.321 196.636 309.927 201.946 315.728 205.596C335.858 217.875 357.183 208.915 364.178 200.618C367.931 196.138 370.319 190.994 371.172 186.182C372.537 176.89 365.542 172.079 358.036 174.402Z" fill="#7C2D0E"/>
<path d="M319.822 204.103C325.111 206.924 330.911 208.251 336.712 208.251C344.73 208.251 352.406 205.43 357.354 201.946C361.619 198.959 360.595 196.304 355.648 194.645C344.559 190.994 331.423 191.492 320.846 196.304C313.681 199.623 315.046 201.78 319.822 204.103Z" fill="#FF61AC"/>
<path d="M337.564 162.123C338.417 161.625 338.929 161.127 339.27 160.629C340.465 158.804 336.029 158.638 335.176 160.132C334.494 161.293 335.858 163.284 337.564 162.123Z" fill="#7C2D0E"/>
<path d="M344.218 161.459C343.535 161.127 343.194 160.629 342.853 160.298C341.829 158.804 345.582 158.804 346.265 159.8C346.777 160.795 345.582 162.289 344.218 161.459Z" fill="#7C2D0E"/>
<path d="M299.009 337.509C297.474 335.85 294.915 334.025 292.356 333.527C287.75 332.531 282.632 335.518 284.509 341.823C285.703 345.805 289.456 349.954 294.062 349.622C296.621 349.456 298.498 347.631 300.033 345.805C302.08 342.985 301.057 339.832 299.009 337.509Z" fill="white"/>
<path d="M342.682 349.29C340.294 352.608 340.806 357.254 343.877 359.411C347.459 362.066 355.307 360.407 357.866 357.254C359.401 355.429 359.742 353.106 359.06 351.115C358.207 348.792 358.377 347.962 353.43 346.967C350.018 346.303 344.9 346.137 342.682 349.29Z" fill="white"/>
<path d="M378.337 411.513C370.831 411.513 363.325 411.513 355.648 411.679C353.601 411.679 350.871 412.176 348.994 411.181C346.435 410.019 327.499 396.247 325.964 394.92C321.358 390.772 319.31 387.619 327.499 382.807C326.476 382.973 325.623 383.305 324.599 383.637C321.699 384.632 319.14 386.623 319.481 389.444C317.263 391.269 316.751 393.924 317.946 397.575C320.334 405.871 323.917 415.827 329.546 422.63C329.717 422.796 329.887 423.128 330.229 423.294C330.911 426.944 333.982 430.263 337.735 433.083C342.512 436.568 347.8 439.555 352.918 442.707C357.354 445.528 362.472 448.847 367.59 450.34C359.571 445.86 343.706 434.577 341.318 431.922C336.711 426.778 345.071 426.778 352.406 427.774C358.719 428.603 365.201 428.935 371.513 429.599C372.537 429.765 374.584 429.433 371.684 428.769C362.472 426.446 352.918 425.451 343.535 424.123C341.147 423.791 336.029 422.298 332.446 419.145C331.593 418.316 326.476 412.674 323.064 404.544C320.505 398.238 321.869 398.736 326.646 401.391C331.252 404.046 344.729 411.679 346.435 412.508C348.824 413.67 351.042 414.333 354.283 414.333C362.472 414.333 370.66 413.504 378.849 412.508C381.237 412.01 381.067 411.513 378.337 411.513Z" fill="#F4905D"/>
<path d="M268.472 356.425C267.79 355.927 258.748 356.923 252.777 352.94C249.024 350.451 245.953 347.133 243.053 343.98C240.665 341.491 237.082 337.509 235.206 333.693C235.888 336.182 237.253 338.505 238.447 340.662C241.177 345.308 244.759 349.954 248.683 353.77C252.948 357.918 258.066 359.08 263.013 361.9C267.79 364.555 261.819 371.192 259.601 373.349C255.848 376.834 242.03 374.179 232.817 369.533C223.776 365.053 215.075 359.412 206.886 354.268C206.545 354.102 206.204 354.6 206.545 354.766C216.099 363.228 227.188 370.197 238.959 375.341C242.03 376.668 245.1 377.83 248.171 378.659C248.683 378.991 249.195 379.323 249.706 379.655C253.63 382.641 249.365 386.956 246.636 388.449C241.518 391.27 232.306 389.113 225.652 386.956C218.487 384.799 211.493 381.646 204.839 378.327C204.327 377.995 203.986 378.659 204.327 378.991C210.469 383.471 218.658 387.785 227.358 390.606C231.964 392.099 234.864 395.418 228.894 397.077C227.699 397.409 226.505 397.741 225.311 397.907C209.275 398.736 191.874 394.256 178.397 385.462C166.284 377.498 162.19 364.887 160.996 351.779C159.972 356.093 159.46 360.407 159.631 364.721C159.801 368.703 160.654 372.52 162.19 376.004C162.19 376.004 162.19 376.17 162.36 376.17C163.213 377.995 164.237 379.655 165.261 381.148C165.261 381.148 165.261 381.314 165.431 381.314C165.602 381.646 165.772 381.812 166.114 382.144C169.526 386.79 173.79 390.938 178.567 393.925C184.026 397.409 200.063 398.405 213.881 398.902C214.052 398.902 214.052 398.902 214.222 398.902C215.416 398.902 216.611 398.902 217.634 399.068C217.805 399.068 217.975 399.068 218.146 399.068C219.34 399.068 220.364 399.068 221.558 399.068C221.728 399.068 221.728 399.068 221.899 399.068C223.093 399.068 224.117 399.068 225.14 399.068C226.164 399.068 227.188 399.068 228.211 399.068C228.894 399.068 229.576 399.068 230.258 398.902C230.429 398.902 230.429 398.902 230.6 398.902C231.282 398.736 231.794 398.736 232.306 398.405C232.476 398.405 232.647 398.239 232.817 398.239C233.329 398.073 233.67 397.907 234.182 397.741C234.523 397.575 234.694 397.575 235.035 397.409C235.206 397.243 235.376 397.243 235.547 397.077C238.276 395.584 240.324 393.427 241.347 391.933C244.589 391.933 247.659 391.104 250.559 389.444C254.654 386.956 257.383 382.641 257.725 378.327C258.236 378.327 258.578 378.327 259.089 378.161C265.231 377.166 268.302 371.358 269.837 365.883C270.008 363.062 270.519 358.084 268.472 356.425Z" fill="#F4905D"/>
<path d="M453.059 280.928C450.33 303.494 440.776 325.728 426.446 343.814C426.275 344.146 426.617 344.478 426.787 344.146C435.999 336.845 441.459 326.89 446.065 316.602C451.012 305.319 453.912 293.206 453.4 280.928C453.23 280.762 453.059 280.762 453.059 280.928Z" fill="#F5F5F5"/>
<path d="M169.867 263.339C166.455 276.613 167.99 291.049 170.379 304.323C170.379 304.655 170.72 304.489 170.89 304.323C171.914 290.717 170.208 276.945 170.208 263.339C170.208 263.173 169.867 263.173 169.867 263.339Z" fill="#F5F5F5"/>
<path d="M247.659 424.123C265.743 440.882 294.232 459.134 319.822 447.519C320.163 447.353 319.993 446.856 319.652 447.022C292.697 454.654 268.984 438.227 247.83 423.792C247.659 423.792 247.489 423.958 247.659 424.123Z" fill="#F5F5F5"/>
<path d="M317.093 452.497C321.869 453.824 326.134 452.829 329.717 449.344C329.887 449.179 329.717 448.847 329.376 448.847C325.793 450.672 321.187 451.999 317.263 452.165C316.922 452.165 316.922 452.497 317.093 452.497Z" fill="#F5F5F5"/>
<path d="M413.651 58.7496C393.52 50.4532 327.67 52.9422 292.356 56.5926C277.855 58.0859 268.131 61.2386 262.672 67.046C261.648 68.2075 260.625 70.0328 259.942 72.3558C264.719 69.535 270.008 67.212 275.637 65.7186C287.579 62.566 300.545 61.7363 312.828 60.9067C337.394 59.4134 362.472 59.2474 387.038 60.243C399.662 60.7408 416.722 61.2386 421.328 75.1765C424.057 83.307 423.887 92.599 423.716 101.061C423.546 110.685 422.522 120.475 419.451 129.601C418.94 131.26 418.257 132.92 417.404 134.247C425.934 130.597 429.175 124.623 429.858 106.869C430.37 95.2538 429.687 79.1588 427.469 72.5217C425.422 66.7142 421.328 61.9023 413.651 58.7496Z" fill="#103E82"/>
<path d="M266.254 152.333C296.962 157.643 368.272 157.477 410.921 152.167C418.769 151.171 425.934 146.691 430.54 140.718C423.716 146.194 413.651 147.687 409.898 148.517C401.027 150.176 391.473 150.508 382.943 151.005C353.6 153.163 324.428 153.494 295.085 152.001C282.461 151.337 267.96 150.508 256.53 144.534C246.124 139.059 243.053 127.61 241.347 116.99C239.641 106.703 239.641 95.7514 240.324 85.2979C240.665 79.4904 241.688 73.0192 244.247 67.3777C242.03 69.8666 240.324 72.8533 239.3 76.3378C235.717 89.2802 236.57 111.349 239.3 126.282C242.883 146.359 256.019 150.674 266.254 152.333Z" fill="#1B4C9B"/>
<path d="M242.371 42.157C243.053 50.6193 235.206 58.7498 230.6 65.221C224.799 73.1855 221.387 82.1457 219.511 91.7695C217.805 100.564 218.828 108.86 221.046 117.488C222.07 121.968 223.093 126.614 222.411 131.26C221.728 136.238 218.146 139.391 213.71 140.221C215.416 141.548 218.146 141.548 220.875 141.05C224.117 140.552 227.188 139.391 227.358 135.575C227.699 131.592 227.017 126.946 226.676 123.628C225.993 115.995 222.07 109.69 222.07 101.725C222.24 74.347 234.864 59.4135 245.271 47.7985C246.636 46.9689 244.93 43.8163 242.371 42.157Z" fill="#C37A87"/>
</svg>
