<svg width="474" height="121" viewBox="0 0 474 121" fill="none" xmlns="http://www.w3.org/2000/svg">
<path d="M471.312 49.9592C474.724 54.2734 472.507 53.9415 468.753 54.1074C433.44 55.6008 397.955 55.6008 362.471 55.7667C362.13 55.7667 352.235 56.7623 361.959 53.1119C388.231 42.9903 415.015 33.3664 442.14 26.2315C447.77 24.7382 447.429 25.07 450.67 27.8908C453.911 30.7116 456.812 33.8642 459.712 36.8509C463.635 40.9991 467.73 45.3132 471.312 49.9592ZM89.8558 78.9966C62.0483 73.0232 33.8997 68.2113 5.92163 62.9016C-2.43766 61.2423 1.14489 65.3906 2.50968 68.5432C5.40984 75.3462 8.31002 81.9834 11.722 88.4546C14.2809 93.2665 14.6221 92.9346 20.0813 92.2709C43.6237 89.616 66.9957 86.1316 90.197 82.1493C99.2386 80.6559 93.6089 79.6604 89.8558 78.9966ZM403.244 4.82677C398.297 3.16749 393.008 2.006 387.72 0.844504C384.649 0.180792 382.09 0.844497 380.384 3.00156C372.707 12.6254 365.542 22.9129 358.377 33.0346C353.941 39.1739 356.5 37.3487 360.253 35.1916C374.754 26.7293 389.937 19.0966 404.097 9.97055C408.362 7.14977 407.509 6.32012 403.244 4.82677ZM71.2606 23.9085C67.5074 25.4019 63.5837 26.8952 59.8305 28.2226C54.0302 30.3797 55.2244 31.0434 59.1482 33.2005C69.5546 38.6761 80.3023 43.654 91.0499 48.7977C95.9973 51.1207 96.1679 50.6229 93.2677 46.4747C88.6616 39.5058 83.7142 32.7027 78.4257 26.0656C76.0373 22.747 74.8431 22.4152 71.2606 23.9085ZM381.749 93.2665C374.925 87.7908 367.93 82.6471 360.765 77.6692C358.206 75.844 357.012 76.3418 358.377 79.3285C363.324 89.9479 368.101 100.733 373.389 111.187C376.119 116.662 376.631 116.165 378.848 111.021C380.384 107.536 381.919 104.218 383.455 100.899C386.014 95.0917 385.161 95.9213 381.749 93.2665ZM98.3857 93.7643C88.8322 100.899 79.4493 108.366 70.4076 116.165C66.4839 119.483 67.1662 120.479 71.2606 120.147C74.3314 119.981 77.2315 119.815 80.3023 119.317C84.5672 118.653 86.1026 117.824 89.6852 112.846C93.7795 107.039 97.7032 101.397 101.456 95.2576C105.551 88.1227 100.262 92.2709 98.3857 93.7643Z" fill="#EB8382"/>
<path d="M381.237 105.379C380.896 105.545 380.384 105.545 380.043 105.711C375.266 106.707 372.195 100.567 369.977 97.4145C366.565 92.4367 363.153 87.2929 359.912 82.1491C359.4 81.1536 358.718 80.3239 358.206 79.3284C363.153 89.9478 367.93 100.733 373.048 111.187C375.778 116.662 376.289 116.164 378.507 111.021C379.701 109.195 380.554 107.37 381.237 105.379Z" fill="#C37A87"/>
<path d="M459.712 36.6849C458.688 35.5234 457.665 34.5278 456.641 33.3663C457.665 35.5234 458.517 37.8464 459.541 40.0035C461.076 43.1561 463.977 49.2955 458.688 50.291C452.717 51.4525 446.234 51.4525 440.264 51.9503C418.598 53.2777 396.761 54.1074 375.095 55.1029C369.465 55.2689 364.006 55.6007 358.377 55.9326C359.571 56.2644 362.3 55.9326 362.642 55.9326C397.955 55.6007 433.44 55.7666 468.924 54.2733C472.677 54.1074 474.895 54.4392 471.483 50.1251C467.73 45.3132 463.635 40.999 459.712 36.6849Z" fill="#C37A87"/>
<path d="M390.62 13.6208C386.696 16.4416 382.772 19.4283 378.848 22.2491C374.413 25.4017 370.148 28.7203 365.883 31.8729C378.678 24.5721 391.814 17.935 404.097 9.80448C408.362 6.9837 407.509 6.15406 403.244 4.82663C399.832 3.66514 396.42 2.8355 393.008 2.00586C394.543 3.33328 395.567 4.82664 395.738 6.81778C396.079 9.97041 392.837 11.9615 390.62 13.6208Z" fill="#C37A87"/>
<path d="M98.3857 93.7642C98.2151 93.9301 98.0445 94.0961 97.8739 94.262C95.6561 100.069 86.7851 110.191 85.4203 111.519C82.1789 114.837 78.5964 117.658 74.6726 119.981C76.7198 119.815 78.5964 119.649 80.4729 119.317C84.7379 118.653 86.2733 117.824 89.8558 112.846C93.9502 107.038 97.8739 101.397 101.627 95.2576C105.551 88.1227 100.262 92.2709 98.3857 93.7642Z" fill="#C37A87"/>
<path d="M83.0318 43.322C78.0845 40.3353 72.9666 37.1826 68.3604 33.6981C66.3132 32.2048 64.4367 30.2136 64.0955 27.7247C64.0955 27.3929 64.0955 26.8951 64.0955 26.5632C62.5601 27.061 61.1953 27.7247 59.6599 28.2225C53.8596 30.3796 55.0538 31.0433 58.9775 33.2004C69.384 38.676 80.1317 43.6538 90.8793 48.7976C92.7559 49.6272 93.7795 50.125 94.4619 50.291C90.8793 47.968 86.9556 45.645 83.0318 43.322Z" fill="#C37A87"/>
<path d="M93.6089 81.4856C77.7433 83.1448 61.7071 83.9745 45.6709 84.9701C40.7236 85.3019 35.7763 85.4678 30.8289 85.3019C25.711 85.136 20.0813 84.8041 15.4751 82.6471C10.6984 80.49 7.79824 76.5077 4.55688 72.8573C6.77466 78.167 9.163 83.4767 11.8926 88.6205C14.4515 93.4324 14.7927 93.1005 20.2519 92.4368C43.7944 89.782 67.1663 86.2975 90.3676 82.3152C91.7323 81.9833 92.7559 81.6515 93.6089 81.4856Z" fill="#C37A87"/>
</svg>
