<svg width="519" height="457" viewBox="0 0 519 457" fill="none" xmlns="http://www.w3.org/2000/svg">
<path opacity="0.3" d="M285.585 456.702C414.22 456.702 518.5 355.277 518.5 230.163C518.5 105.048 414.22 3.62317 285.585 3.62317C156.949 3.62317 52.6699 105.048 52.6699 230.163C52.6699 355.277 156.949 456.702 285.585 456.702Z" fill="#4E8FD3"/>
<path opacity="0.3" d="M232.915 453.784C361.55 453.784 465.83 352.359 465.83 227.245C465.83 102.13 361.55 0.7052 232.915 0.7052C104.279 0.7052 -0.00012207 102.13 -0.00012207 227.245C-0.00012207 352.359 104.279 453.784 232.915 453.784Z" fill="#4E8FD3"/>
<path d="M260.492 455.73C389.127 455.73 493.407 354.304 493.407 229.19C493.407 104.076 389.127 2.65051 260.492 2.65051C131.857 2.65051 27.5771 104.076 27.5771 229.19C27.5771 354.304 131.857 455.73 260.492 455.73Z" fill="url(#paint0_linear_12463_2)"/>
<defs>
<linearGradient id="paint0_linear_12463_2" x1="260.492" y1="2.65051" x2="260.492" y2="455.73" gradientUnits="userSpaceOnUse">
<stop stop-color="#826F8C"/>
<stop offset="1" stop-color="#446381"/>
</linearGradient>
</defs>
</svg>
